<mxfile host="app.diagrams.net" modified="2020-09-17T16:31:07.252Z" agent="5.0 (Windows NT 10.0; Win64; x64) AppleWebKit/537.36 (KHTML, like Gecko) Chrome/85.0.4183.102 Safari/537.36" etag="EC4fvmePERMInMp5lZx_" version="13.6.9" type="github">
  <diagram id="ckzOWwWsCJZHVsrQiB-s" name="Page-1">
    <mxGraphModel dx="1038" dy="548" grid="1" gridSize="10" guides="1" tooltips="1" connect="1" arrows="1" fold="1" page="1" pageScale="1" pageWidth="850" pageHeight="1100" math="0" shadow="0">
      <root>
        <mxCell id="0" />
        <mxCell id="1" parent="0" />
        <mxCell id="VM0KCs58UYk9eu-B5sUt-2" style="edgeStyle=orthogonalEdgeStyle;rounded=0;orthogonalLoop=1;jettySize=auto;html=1;" parent="1" source="VM0KCs58UYk9eu-B5sUt-1" edge="1">
          <mxGeometry relative="1" as="geometry">
            <mxPoint x="400" y="230" as="targetPoint" />
          </mxGeometry>
        </mxCell>
        <mxCell id="VM0KCs58UYk9eu-B5sUt-1" value="start" style="ellipse;whiteSpace=wrap;html=1;" parent="1" vertex="1">
          <mxGeometry x="340" y="110" width="120" height="80" as="geometry" />
        </mxCell>
        <mxCell id="VM0KCs58UYk9eu-B5sUt-4" style="edgeStyle=orthogonalEdgeStyle;rounded=0;orthogonalLoop=1;jettySize=auto;html=1;" parent="1" source="VM0KCs58UYk9eu-B5sUt-3" edge="1">
          <mxGeometry relative="1" as="geometry">
            <mxPoint x="400" y="340" as="targetPoint" />
          </mxGeometry>
        </mxCell>
        <mxCell id="VM0KCs58UYk9eu-B5sUt-3" value="Enter Starting Balance" style="shape=parallelogram;perimeter=parallelogramPerimeter;whiteSpace=wrap;html=1;fixedSize=1;" parent="1" vertex="1">
          <mxGeometry x="330" y="230" width="140" height="60" as="geometry" />
        </mxCell>
        <mxCell id="VM0KCs58UYk9eu-B5sUt-14" style="edgeStyle=orthogonalEdgeStyle;rounded=0;orthogonalLoop=1;jettySize=auto;html=1;" parent="1" edge="1">
          <mxGeometry relative="1" as="geometry">
            <mxPoint x="400" y="470" as="targetPoint" />
            <mxPoint x="400" y="430" as="sourcePoint" />
          </mxGeometry>
        </mxCell>
        <mxCell id="VM0KCs58UYk9eu-B5sUt-8" value="no" style="edgeStyle=orthogonalEdgeStyle;rounded=0;orthogonalLoop=1;jettySize=auto;html=1;exitX=1;exitY=0.5;exitDx=0;exitDy=0;entryX=1;entryY=0.75;entryDx=0;entryDy=0;" parent="1" source="VM0KCs58UYk9eu-B5sUt-6" target="VM0KCs58UYk9eu-B5sUt-3" edge="1">
          <mxGeometry relative="1" as="geometry">
            <Array as="points">
              <mxPoint x="520" y="520" />
              <mxPoint x="520" y="272" />
            </Array>
          </mxGeometry>
        </mxCell>
        <mxCell id="VM0KCs58UYk9eu-B5sUt-11" value="yes" style="edgeStyle=orthogonalEdgeStyle;rounded=0;orthogonalLoop=1;jettySize=auto;html=1;" parent="1" source="VM0KCs58UYk9eu-B5sUt-6" edge="1">
          <mxGeometry relative="1" as="geometry">
            <mxPoint x="400" y="620" as="targetPoint" />
            <Array as="points">
              <mxPoint x="400" y="620" />
              <mxPoint x="400" y="620" />
            </Array>
          </mxGeometry>
        </mxCell>
        <mxCell id="VM0KCs58UYk9eu-B5sUt-6" value="is #?" style="rhombus;whiteSpace=wrap;html=1;" parent="1" vertex="1">
          <mxGeometry x="360" y="480" width="80" height="80" as="geometry" />
        </mxCell>
        <mxCell id="VM0KCs58UYk9eu-B5sUt-17" style="edgeStyle=orthogonalEdgeStyle;rounded=0;orthogonalLoop=1;jettySize=auto;html=1;" parent="1" source="VM0KCs58UYk9eu-B5sUt-15" edge="1">
          <mxGeometry relative="1" as="geometry">
            <mxPoint x="400" y="720" as="targetPoint" />
          </mxGeometry>
        </mxCell>
        <mxCell id="VM0KCs58UYk9eu-B5sUt-15" value="Enter Yearly Contribution" style="shape=parallelogram;perimeter=parallelogramPerimeter;whiteSpace=wrap;html=1;fixedSize=1;" parent="1" vertex="1">
          <mxGeometry x="330" y="630" width="140" height="60" as="geometry" />
        </mxCell>
        <mxCell id="VM0KCs58UYk9eu-B5sUt-22" style="edgeStyle=orthogonalEdgeStyle;rounded=0;orthogonalLoop=1;jettySize=auto;html=1;" parent="1" edge="1">
          <mxGeometry relative="1" as="geometry">
            <mxPoint x="400" y="860" as="targetPoint" />
            <mxPoint x="400" y="820" as="sourcePoint" />
          </mxGeometry>
        </mxCell>
        <mxCell id="VM0KCs58UYk9eu-B5sUt-24" value="no" style="edgeStyle=orthogonalEdgeStyle;rounded=0;orthogonalLoop=1;jettySize=auto;html=1;entryX=1;entryY=0.25;entryDx=0;entryDy=0;" parent="1" source="VM0KCs58UYk9eu-B5sUt-23" target="VM0KCs58UYk9eu-B5sUt-15" edge="1">
          <mxGeometry relative="1" as="geometry">
            <Array as="points">
              <mxPoint x="520" y="900" />
              <mxPoint x="520" y="646" />
            </Array>
          </mxGeometry>
        </mxCell>
        <mxCell id="VM0KCs58UYk9eu-B5sUt-28" value="" style="edgeStyle=orthogonalEdgeStyle;rounded=0;orthogonalLoop=1;jettySize=auto;html=1;" parent="1" source="VM0KCs58UYk9eu-B5sUt-23" target="VM0KCs58UYk9eu-B5sUt-27" edge="1">
          <mxGeometry relative="1" as="geometry" />
        </mxCell>
        <mxCell id="VM0KCs58UYk9eu-B5sUt-23" value="is it #?" style="rhombus;whiteSpace=wrap;html=1;" parent="1" vertex="1">
          <mxGeometry x="360" y="860" width="80" height="80" as="geometry" />
        </mxCell>
        <mxCell id="VM0KCs58UYk9eu-B5sUt-30" value="" style="edgeStyle=orthogonalEdgeStyle;rounded=0;orthogonalLoop=1;jettySize=auto;html=1;" parent="1" source="VM0KCs58UYk9eu-B5sUt-27" edge="1">
          <mxGeometry relative="1" as="geometry">
            <mxPoint x="400" y="1160" as="targetPoint" />
          </mxGeometry>
        </mxCell>
        <mxCell id="VM0KCs58UYk9eu-B5sUt-27" value="Enter average Return&lt;br&gt;on Investment as %" style="shape=parallelogram;perimeter=parallelogramPerimeter;whiteSpace=wrap;html=1;fixedSize=1;" parent="1" vertex="1">
          <mxGeometry x="330" y="1040" width="140" height="60" as="geometry" />
        </mxCell>
        <mxCell id="VM0KCs58UYk9eu-B5sUt-34" value="" style="edgeStyle=orthogonalEdgeStyle;rounded=0;orthogonalLoop=1;jettySize=auto;html=1;" parent="1" source="VM0KCs58UYk9eu-B5sUt-29" target="VM0KCs58UYk9eu-B5sUt-33" edge="1">
          <mxGeometry relative="1" as="geometry">
            <Array as="points">
              <mxPoint x="400" y="1265" />
              <mxPoint x="400" y="1265" />
            </Array>
          </mxGeometry>
        </mxCell>
        <mxCell id="VM0KCs58UYk9eu-B5sUt-29" value="Get %" style="whiteSpace=wrap;html=1;" parent="1" vertex="1">
          <mxGeometry x="340" y="1170" width="120" height="60" as="geometry" />
        </mxCell>
        <mxCell id="VM0KCs58UYk9eu-B5sUt-31" value="Get#" style="rounded=0;whiteSpace=wrap;html=1;" parent="1" vertex="1">
          <mxGeometry x="340" y="750" width="120" height="60" as="geometry" />
        </mxCell>
        <mxCell id="VM0KCs58UYk9eu-B5sUt-32" value="Getting #" style="rounded=0;whiteSpace=wrap;html=1;" parent="1" vertex="1">
          <mxGeometry x="340" y="360" width="120" height="60" as="geometry" />
        </mxCell>
        <mxCell id="VM0KCs58UYk9eu-B5sUt-35" value="no" style="edgeStyle=orthogonalEdgeStyle;rounded=0;orthogonalLoop=1;jettySize=auto;html=1;entryX=1;entryY=0.5;entryDx=0;entryDy=0;" parent="1" source="VM0KCs58UYk9eu-B5sUt-33" target="VM0KCs58UYk9eu-B5sUt-27" edge="1">
          <mxGeometry relative="1" as="geometry">
            <Array as="points">
              <mxPoint x="520" y="1340" />
              <mxPoint x="520" y="1070" />
            </Array>
          </mxGeometry>
        </mxCell>
        <mxCell id="VM0KCs58UYk9eu-B5sUt-37" value="yes" style="edgeStyle=orthogonalEdgeStyle;rounded=0;orthogonalLoop=1;jettySize=auto;html=1;" parent="1" source="VM0KCs58UYk9eu-B5sUt-33" target="VM0KCs58UYk9eu-B5sUt-36" edge="1">
          <mxGeometry relative="1" as="geometry" />
        </mxCell>
        <mxCell id="VM0KCs58UYk9eu-B5sUt-33" value="Is it %?" style="rhombus;whiteSpace=wrap;html=1;" parent="1" vertex="1">
          <mxGeometry x="360" y="1300" width="80" height="80" as="geometry" />
        </mxCell>
        <mxCell id="VM0KCs58UYk9eu-B5sUt-41" value="" style="edgeStyle=orthogonalEdgeStyle;rounded=0;orthogonalLoop=1;jettySize=auto;html=1;" parent="1" source="VM0KCs58UYk9eu-B5sUt-36" target="VM0KCs58UYk9eu-B5sUt-40" edge="1">
          <mxGeometry relative="1" as="geometry" />
        </mxCell>
        <mxCell id="VM0KCs58UYk9eu-B5sUt-36" value="Enter # of years" style="shape=parallelogram;perimeter=parallelogramPerimeter;whiteSpace=wrap;html=1;fixedSize=1;" parent="1" vertex="1">
          <mxGeometry x="330" y="1470" width="140" height="60" as="geometry" />
        </mxCell>
        <mxCell id="VM0KCs58UYk9eu-B5sUt-43" value="" style="edgeStyle=orthogonalEdgeStyle;rounded=0;orthogonalLoop=1;jettySize=auto;html=1;" parent="1" source="VM0KCs58UYk9eu-B5sUt-40" target="VM0KCs58UYk9eu-B5sUt-42" edge="1">
          <mxGeometry relative="1" as="geometry" />
        </mxCell>
        <mxCell id="VM0KCs58UYk9eu-B5sUt-40" value="Get # of years" style="whiteSpace=wrap;html=1;" parent="1" vertex="1">
          <mxGeometry x="340" y="1610" width="120" height="60" as="geometry" />
        </mxCell>
        <mxCell id="VM0KCs58UYk9eu-B5sUt-44" value="no" style="edgeStyle=orthogonalEdgeStyle;rounded=0;orthogonalLoop=1;jettySize=auto;html=1;entryX=1;entryY=0.25;entryDx=0;entryDy=0;" parent="1" source="VM0KCs58UYk9eu-B5sUt-42" target="VM0KCs58UYk9eu-B5sUt-36" edge="1">
          <mxGeometry relative="1" as="geometry">
            <Array as="points">
              <mxPoint x="520" y="1780" />
              <mxPoint x="520" y="1486" />
            </Array>
          </mxGeometry>
        </mxCell>
        <mxCell id="ssxSqhYOLEixzdenELue-2" value="yes" style="edgeStyle=orthogonalEdgeStyle;rounded=0;orthogonalLoop=1;jettySize=auto;html=1;" edge="1" parent="1" source="VM0KCs58UYk9eu-B5sUt-42" target="ssxSqhYOLEixzdenELue-1">
          <mxGeometry relative="1" as="geometry" />
        </mxCell>
        <mxCell id="VM0KCs58UYk9eu-B5sUt-42" value="is it a year?" style="rhombus;whiteSpace=wrap;html=1;" parent="1" vertex="1">
          <mxGeometry x="360" y="1740" width="80" height="80" as="geometry" />
        </mxCell>
        <mxCell id="ssxSqhYOLEixzdenELue-4" value="" style="edgeStyle=orthogonalEdgeStyle;rounded=0;orthogonalLoop=1;jettySize=auto;html=1;" edge="1" parent="1" source="ssxSqhYOLEixzdenELue-1" target="ssxSqhYOLEixzdenELue-3">
          <mxGeometry relative="1" as="geometry" />
        </mxCell>
        <mxCell id="ssxSqhYOLEixzdenELue-1" value="Display starting balance" style="shape=parallelogram;perimeter=parallelogramPerimeter;whiteSpace=wrap;html=1;fixedSize=1;" vertex="1" parent="1">
          <mxGeometry x="330" y="1910" width="140" height="60" as="geometry" />
        </mxCell>
        <mxCell id="ssxSqhYOLEixzdenELue-9" value="" style="edgeStyle=orthogonalEdgeStyle;rounded=0;orthogonalLoop=1;jettySize=auto;html=1;" edge="1" parent="1" source="ssxSqhYOLEixzdenELue-3">
          <mxGeometry relative="1" as="geometry">
            <mxPoint x="400" y="2180" as="targetPoint" />
          </mxGeometry>
        </mxCell>
        <mxCell id="ssxSqhYOLEixzdenELue-3" value="Calculate next years balance, Update balance((bal+Yc)x(1+rat) (.05)" style="whiteSpace=wrap;html=1;" vertex="1" parent="1">
          <mxGeometry x="340" y="2020" width="120" height="60" as="geometry" />
        </mxCell>
        <mxCell id="ssxSqhYOLEixzdenELue-17" value="" style="edgeStyle=orthogonalEdgeStyle;rounded=0;orthogonalLoop=1;jettySize=auto;html=1;" edge="1" parent="1" source="ssxSqhYOLEixzdenELue-10" target="ssxSqhYOLEixzdenELue-16">
          <mxGeometry relative="1" as="geometry" />
        </mxCell>
        <mxCell id="ssxSqhYOLEixzdenELue-10" value="Print balance" style="shape=parallelogram;perimeter=parallelogramPerimeter;whiteSpace=wrap;html=1;fixedSize=1;" vertex="1" parent="1">
          <mxGeometry x="330" y="2190" width="140" height="60" as="geometry" />
        </mxCell>
        <mxCell id="ssxSqhYOLEixzdenELue-18" value="no" style="edgeStyle=orthogonalEdgeStyle;rounded=0;orthogonalLoop=1;jettySize=auto;html=1;exitX=1;exitY=0.5;exitDx=0;exitDy=0;entryX=1;entryY=0.5;entryDx=0;entryDy=0;" edge="1" parent="1" source="ssxSqhYOLEixzdenELue-16" target="ssxSqhYOLEixzdenELue-3">
          <mxGeometry relative="1" as="geometry">
            <Array as="points">
              <mxPoint x="520" y="2360" />
              <mxPoint x="520" y="2050" />
            </Array>
          </mxGeometry>
        </mxCell>
        <mxCell id="ssxSqhYOLEixzdenELue-20" value="yes" style="edgeStyle=orthogonalEdgeStyle;rounded=0;orthogonalLoop=1;jettySize=auto;html=1;" edge="1" parent="1" source="ssxSqhYOLEixzdenELue-16" target="ssxSqhYOLEixzdenELue-19">
          <mxGeometry relative="1" as="geometry" />
        </mxCell>
        <mxCell id="ssxSqhYOLEixzdenELue-16" value="Is it as much as the number of years that was entered?" style="rhombus;whiteSpace=wrap;html=1;" vertex="1" parent="1">
          <mxGeometry x="360" y="2320" width="80" height="80" as="geometry" />
        </mxCell>
        <mxCell id="ssxSqhYOLEixzdenELue-19" value="end" style="ellipse;whiteSpace=wrap;html=1;" vertex="1" parent="1">
          <mxGeometry x="340" y="2480" width="120" height="80" as="geometry" />
        </mxCell>
      </root>
    </mxGraphModel>
  </diagram>
</mxfile>
